<svg xmlns="http://www.w3.org/2000/svg" xmlns:xlink="http://www.w3.org/1999/xlink" width="500" zoomAndPan="magnify" viewBox="0 0 375 374.999991" height="500" preserveAspectRatio="xMidYMid meet" version="1.0"><defs><clipPath id="ed791cc146"><path d="M 30.433594 26.832031 L 344.683594 26.832031 L 344.683594 341.082031 L 30.433594 341.082031 Z M 30.433594 26.832031 " clip-rule="nonzero"/></clipPath></defs><rect x="-37.5" width="450" fill="#ffffff" y="-37.499999" height="449.999989" fill-opacity="1"/><rect x="-37.5" width="450" fill="#ffffff" y="-37.499999" height="449.999989" fill-opacity="1"/><rect x="-37.5" width="450" fill="#1e3351" y="-37.499999" height="449.999989" fill-opacity="1"/><g clip-path="url(#ed791cc146)"><path fill="#ffffff" d="M 187.558594 26.832031 C 100.917969 26.832031 30.433594 97.316406 30.433594 183.957031 C 30.433594 270.59375 100.917969 341.082031 187.558594 341.082031 C 274.195312 341.082031 344.683594 270.59375 344.683594 183.957031 C 344.683594 97.316406 274.195312 26.832031 187.558594 26.832031 Z M 187.558594 320.128906 C 112.46875 320.128906 51.382812 259.042969 51.382812 183.957031 C 51.382812 108.867188 112.46875 47.78125 187.558594 47.78125 C 262.648438 47.78125 323.730469 108.867188 323.730469 183.957031 C 323.730469 259.042969 262.648438 320.128906 187.558594 320.128906 Z M 187.558594 320.128906 " fill-opacity="1" fill-rule="nonzero"/></g><path fill="#ffffff" d="M 242.363281 173.480469 L 198.03125 173.480469 L 198.03125 129.152344 C 198.03125 123.367188 193.34375 118.675781 187.558594 118.675781 C 181.773438 118.675781 177.082031 123.367188 177.082031 129.152344 L 177.082031 173.480469 L 132.753906 173.480469 C 126.96875 173.480469 122.277344 178.171875 122.277344 183.957031 C 122.277344 189.738281 126.96875 194.429688 132.753906 194.429688 L 177.082031 194.429688 L 177.082031 238.757812 C 177.082031 244.542969 181.773438 249.234375 187.558594 249.234375 C 193.34375 249.234375 198.03125 244.542969 198.03125 238.757812 L 198.03125 194.429688 L 242.363281 194.429688 C 248.148438 194.429688 252.835938 189.738281 252.835938 183.957031 C 252.835938 178.171875 248.148438 173.480469 242.363281 173.480469 Z M 242.363281 173.480469 " fill-opacity="1" fill-rule="nonzero"/></svg>